<mxfile host="app.diagrams.net" agent="Mozilla/5.0 (X11; Linux x86_64; rv:130.0) Gecko/20100101 Firefox/130.0" version="24.8.3">
  <diagram name="Page-1" id="X9py8qPNmhiQziaTyPdJ">
    <mxGraphModel dx="1234" dy="575" grid="1" gridSize="10" guides="1" tooltips="1" connect="1" arrows="1" fold="1" page="1" pageScale="1" pageWidth="850" pageHeight="1100" math="0" shadow="0">
      <root>
        <mxCell id="0" />
        <mxCell id="1" parent="0" />
        <mxCell id="wq1x-DvyOyqJZuiO0ZfP-2" style="edgeStyle=orthogonalEdgeStyle;rounded=0;orthogonalLoop=1;jettySize=auto;html=1;exitX=0.5;exitY=1;exitDx=0;exitDy=0;" parent="1" source="wq1x-DvyOyqJZuiO0ZfP-1" edge="1">
          <mxGeometry relative="1" as="geometry">
            <mxPoint x="425.33333333333337" y="170" as="targetPoint" />
          </mxGeometry>
        </mxCell>
        <mxCell id="wq1x-DvyOyqJZuiO0ZfP-1" value="&lt;font style=&quot;font-size: 24px;&quot; face=&quot;Lucida Console&quot;&gt;START&lt;/font&gt;&lt;div&gt;&lt;span style=&quot;font-size: 18px;&quot;&gt;adminMode&lt;/span&gt;&lt;/div&gt;" style="ellipse;whiteSpace=wrap;html=1;" parent="1" vertex="1">
          <mxGeometry x="365" y="40" width="120" height="80" as="geometry" />
        </mxCell>
        <mxCell id="wq1x-DvyOyqJZuiO0ZfP-8" style="edgeStyle=orthogonalEdgeStyle;rounded=0;orthogonalLoop=1;jettySize=auto;html=1;entryX=0.5;entryY=0;entryDx=0;entryDy=0;" parent="1" source="wq1x-DvyOyqJZuiO0ZfP-3" edge="1">
          <mxGeometry relative="1" as="geometry">
            <mxPoint x="425.25" y="290" as="targetPoint" />
          </mxGeometry>
        </mxCell>
        <mxCell id="wq1x-DvyOyqJZuiO0ZfP-3" value="&lt;div&gt;&lt;span style=&quot;font-size: 18px; font-family: &amp;quot;Lucida Console&amp;quot;; background-color: initial;&quot;&gt;Print&lt;/span&gt;&lt;/div&gt;&lt;div&gt;&lt;span style=&quot;font-size: 18px;&quot;&gt;Admin Menu&lt;/span&gt;&lt;/div&gt;" style="shape=display;whiteSpace=wrap;html=1;" parent="1" vertex="1">
          <mxGeometry x="348" y="170" width="155" height="70" as="geometry" />
        </mxCell>
        <mxCell id="wq1x-DvyOyqJZuiO0ZfP-12" style="edgeStyle=none;rounded=0;orthogonalLoop=1;jettySize=auto;html=1;" parent="1" source="wq1x-DvyOyqJZuiO0ZfP-10" target="wq1x-DvyOyqJZuiO0ZfP-11" edge="1">
          <mxGeometry relative="1" as="geometry" />
        </mxCell>
        <mxCell id="wq1x-DvyOyqJZuiO0ZfP-10" value="&lt;font face=&quot;Lucida Console&quot;&gt;&lt;span style=&quot;font-size: 14px;&quot;&gt;Input&lt;/span&gt;&lt;/font&gt;&lt;br&gt;&lt;div&gt;&lt;span style=&quot;font-size: 14px;&quot;&gt;adminChoice&lt;/span&gt;&lt;/div&gt;" style="shape=parallelogram;perimeter=parallelogramPerimeter;whiteSpace=wrap;html=1;fixedSize=1;" parent="1" vertex="1">
          <mxGeometry x="358" y="290" width="133" height="60" as="geometry" />
        </mxCell>
        <mxCell id="wq1x-DvyOyqJZuiO0ZfP-14" style="edgeStyle=none;rounded=0;orthogonalLoop=1;jettySize=auto;html=1;" parent="1" source="wq1x-DvyOyqJZuiO0ZfP-11" edge="1">
          <mxGeometry relative="1" as="geometry">
            <mxPoint x="424.5" y="500" as="targetPoint" />
          </mxGeometry>
        </mxCell>
        <mxCell id="wq1x-DvyOyqJZuiO0ZfP-11" value="&lt;font face=&quot;Lucida Console&quot;&gt;Case&lt;/font&gt;&lt;br&gt;adminChoice" style="rhombus;whiteSpace=wrap;html=1;" parent="1" vertex="1">
          <mxGeometry x="367" y="400" width="115" height="80" as="geometry" />
        </mxCell>
        <mxCell id="wq1x-DvyOyqJZuiO0ZfP-13" value="" style="shape=link;html=1;rounded=0;" parent="1" edge="1">
          <mxGeometry width="100" relative="1" as="geometry">
            <mxPoint x="200" y="520" as="sourcePoint" />
            <mxPoint x="640" y="520" as="targetPoint" />
          </mxGeometry>
        </mxCell>
        <mxCell id="wq1x-DvyOyqJZuiO0ZfP-15" value="&lt;font face=&quot;Helvetica&quot;&gt;1&lt;/font&gt;" style="text;html=1;align=center;verticalAlign=middle;resizable=0;points=[];autosize=1;strokeColor=none;fillColor=none;" parent="1" vertex="1">
          <mxGeometry x="184" y="494" width="30" height="30" as="geometry" />
        </mxCell>
        <mxCell id="wq1x-DvyOyqJZuiO0ZfP-16" value="&lt;font face=&quot;Helvetica&quot;&gt;3&lt;/font&gt;" style="text;html=1;align=center;verticalAlign=middle;resizable=0;points=[];autosize=1;strokeColor=none;fillColor=none;" parent="1" vertex="1">
          <mxGeometry x="408.5" y="494" width="30" height="30" as="geometry" />
        </mxCell>
        <mxCell id="wq1x-DvyOyqJZuiO0ZfP-18" style="edgeStyle=none;rounded=0;orthogonalLoop=1;jettySize=auto;html=1;" parent="1" edge="1">
          <mxGeometry relative="1" as="geometry">
            <mxPoint x="640" y="560" as="targetPoint" />
            <mxPoint x="640" y="524" as="sourcePoint" />
          </mxGeometry>
        </mxCell>
        <mxCell id="wq1x-DvyOyqJZuiO0ZfP-17" value="&lt;font face=&quot;Helvetica&quot;&gt;0&lt;/font&gt;" style="text;html=1;align=center;verticalAlign=middle;resizable=0;points=[];autosize=1;strokeColor=none;fillColor=none;" parent="1" vertex="1">
          <mxGeometry x="624" y="494" width="30" height="30" as="geometry" />
        </mxCell>
        <mxCell id="wq1x-DvyOyqJZuiO0ZfP-19" value="&lt;font style=&quot;font-size: 24px;&quot; face=&quot;Lucida Console&quot;&gt;END&lt;/font&gt;" style="ellipse;whiteSpace=wrap;html=1;" parent="1" vertex="1">
          <mxGeometry x="624" y="570" width="78" height="50" as="geometry" />
        </mxCell>
        <mxCell id="wq1x-DvyOyqJZuiO0ZfP-27" style="edgeStyle=none;rounded=0;orthogonalLoop=1;jettySize=auto;html=1;" parent="1" edge="1">
          <mxGeometry relative="1" as="geometry">
            <mxPoint x="310" y="560" as="targetPoint" />
            <mxPoint x="310" y="524" as="sourcePoint" />
          </mxGeometry>
        </mxCell>
        <mxCell id="wq1x-DvyOyqJZuiO0ZfP-28" style="edgeStyle=none;rounded=0;orthogonalLoop=1;jettySize=auto;html=1;" parent="1" edge="1">
          <mxGeometry relative="1" as="geometry">
            <mxPoint x="199.72000000000003" y="560" as="targetPoint" />
            <mxPoint x="199.72000000000003" y="524" as="sourcePoint" />
          </mxGeometry>
        </mxCell>
        <mxCell id="1j3w5TSXvZrxcHb9ezb0-1" style="edgeStyle=none;rounded=0;orthogonalLoop=1;jettySize=auto;html=1;" edge="1" parent="1">
          <mxGeometry relative="1" as="geometry">
            <mxPoint x="540" y="560" as="targetPoint" />
            <mxPoint x="540" y="524" as="sourcePoint" />
          </mxGeometry>
        </mxCell>
        <mxCell id="1j3w5TSXvZrxcHb9ezb0-2" value="&lt;div&gt;&lt;font face=&quot;Lucida Console&quot;&gt;Print&lt;/font&gt;&lt;/div&gt;&lt;div&gt;salesAED&lt;/div&gt;&lt;div&gt;ingredientsq&lt;br&gt;&lt;/div&gt;" style="shape=display;whiteSpace=wrap;html=1;" vertex="1" parent="1">
          <mxGeometry x="131.5" y="570" width="109" height="65" as="geometry" />
        </mxCell>
        <mxCell id="1j3w5TSXvZrxcHb9ezb0-3" value="&lt;font face=&quot;Helvetica&quot;&gt;2&lt;/font&gt;" style="text;html=1;align=center;verticalAlign=middle;resizable=0;points=[];autosize=1;strokeColor=none;fillColor=none;" vertex="1" parent="1">
          <mxGeometry x="294" y="494" width="30" height="30" as="geometry" />
        </mxCell>
        <mxCell id="1j3w5TSXvZrxcHb9ezb0-4" value="&lt;font face=&quot;Lucida Console&quot;&gt;ingredient += rand()&lt;/font&gt;" style="rounded=0;whiteSpace=wrap;html=1;" vertex="1" parent="1">
          <mxGeometry x="245" y="572.5" width="120" height="60" as="geometry" />
        </mxCell>
        <mxCell id="1j3w5TSXvZrxcHb9ezb0-5" style="edgeStyle=none;rounded=0;orthogonalLoop=1;jettySize=auto;html=1;" edge="1" parent="1">
          <mxGeometry relative="1" as="geometry">
            <mxPoint x="424.21" y="560" as="targetPoint" />
            <mxPoint x="424.21" y="524" as="sourcePoint" />
          </mxGeometry>
        </mxCell>
        <mxCell id="1j3w5TSXvZrxcHb9ezb0-8" value="&lt;font face=&quot;Lucida Console&quot;&gt;scanf(&quot;%d&quot;, &amp;amp;newCupPrice)&lt;br&gt;&lt;/font&gt;" style="rounded=0;whiteSpace=wrap;html=1;" vertex="1" parent="1">
          <mxGeometry x="371" y="572.5" width="120" height="60" as="geometry" />
        </mxCell>
        <mxCell id="1j3w5TSXvZrxcHb9ezb0-9" value="&lt;div&gt;&lt;font face=&quot;Lucida Console&quot;&gt;salesAED = 0;&lt;/font&gt;&lt;/div&gt;&lt;div&gt;&lt;font face=&quot;Lucida Console&quot;&gt;printf(&quot;Collect sales.&quot;);&lt;br&gt;&lt;/font&gt;&lt;/div&gt;" style="rounded=0;whiteSpace=wrap;html=1;" vertex="1" parent="1">
          <mxGeometry x="500" y="572.5" width="120" height="60" as="geometry" />
        </mxCell>
        <mxCell id="1j3w5TSXvZrxcHb9ezb0-10" value="&lt;font face=&quot;Helvetica&quot;&gt;4&lt;/font&gt;" style="text;html=1;align=center;verticalAlign=middle;resizable=0;points=[];autosize=1;strokeColor=none;fillColor=none;" vertex="1" parent="1">
          <mxGeometry x="525" y="494" width="30" height="30" as="geometry" />
        </mxCell>
      </root>
    </mxGraphModel>
  </diagram>
</mxfile>
